HIERARCHY
ROOT ROOT
{
	OFFSET 0.000000 56.020000 -5.659234
	CHANNELS 6 Xposition Yposition Zposition Xrotation Yrotation Zrotation 
	JOINT C_spine0001_bind_JNT
	{
		OFFSET 0.000000 1.618999 0.000000
		CHANNELS 3 Xrotation Yrotation Zrotation
		JOINT C_spine0002_bind_JNT
		{
			OFFSET 0.000000 4.942001 0.000001
			CHANNELS 3 Xrotation Yrotation Zrotation
			JOINT C_spine0003_bind_JNT
			{
				OFFSET 0.000000 4.942001 -0.000000
				CHANNELS 3 Xrotation Yrotation Zrotation
				JOINT C_neck0001_bind_JNT
				{
					OFFSET 0.000000 17.026009 -0.000000
					CHANNELS 3 Xrotation Yrotation Zrotation
					JOINT C_neck0002_bind_JNT
					{
						OFFSET 0.000000 3.249985 0.000000
						CHANNELS 3 Xrotation Yrotation Zrotation
						JOINT C_head_bind_JNT
						{
							OFFSET 0.000000 5.278008 0.000000
							CHANNELS 3 Xrotation Yrotation Zrotation
							End Site
							{
								OFFSET 0.000000 0.000000 0.000000
							}
						}
					}
				}
				JOINT L_clavicle_bind_JNT
				{
					OFFSET 4.590000 12.067001 0.834000
					CHANNELS 3 Xrotation Yrotation Zrotation
					JOINT L_armUpper0001_bind_JNT
					{
						OFFSET 7.812635 0.512001 -3.452945
						CHANNELS 3 Xrotation Yrotation Zrotation
						JOINT L_armLower0001_bind_JNT
						{
							OFFSET 15.265892 -6.552116 -0.058157
							CHANNELS 3 Xrotation Yrotation Zrotation
							JOINT L_hand0001_bind_JNT
							{
								OFFSET 14.747667 -6.369995 5.049225
								CHANNELS 3 Xrotation Yrotation Zrotation
								End Site
								{
									OFFSET 0.000000 0.000000 0.000000
								}
							}
						}
					}
				}
				JOINT R_clavicle_bind_JNT
				{
					OFFSET -4.590000 12.067001 0.834000
					CHANNELS 3 Xrotation Yrotation Zrotation
					JOINT R_armUpper0001_bind_JNT
					{
						OFFSET -7.812635 0.512001 -3.452945
						CHANNELS 3 Xrotation Yrotation Zrotation
						JOINT R_armLower0001_bind_JNT
						{
							OFFSET -15.265890 -6.552124 -0.058160
							CHANNELS 3 Xrotation Yrotation Zrotation
							JOINT R_hand0001_bind_JNT
							{
								OFFSET -14.746784 -6.369629 5.048937
								CHANNELS 3 Xrotation Yrotation Zrotation
								End Site
								{
									OFFSET 0.000000 0.000000 0.000000
								}
							}
						}
					}
				}
			}
		}
	}
	JOINT C_pelvis0001_bind_JNT
	{
		OFFSET -0.000000 0.000000 0.000000
		CHANNELS 3 Xrotation Yrotation Zrotation
		JOINT L_legUpper0001_bind_JNT
		{
			OFFSET 6.599999 -6.027000 0.539000
			CHANNELS 3 Xrotation Yrotation Zrotation
			JOINT L_legLower0001_bind_JNT
			{
				OFFSET -0.140713 -19.187443 0.040261
				CHANNELS 3 Xrotation Yrotation Zrotation
				JOINT L_foot0001_bind_JNT
				{
					OFFSET -0.132215 -18.028637 -1.138370
					CHANNELS 3 Xrotation Yrotation Zrotation
					JOINT L_foot0002_bind_JNT
					{
						OFFSET 0.007014 -4.693133 9.886524
						CHANNELS 3 Xrotation Yrotation Zrotation
						End Site
						{
							OFFSET 0.000000 0.000000 0.000000
						}
					}
				}
			}
		}
		JOINT R_legUpper0001_bind_JNT
		{
			OFFSET -6.599999 -6.027000 0.539000
			CHANNELS 3 Xrotation Yrotation Zrotation
			JOINT R_legLower0001_bind_JNT
			{
				OFFSET 0.140710 -19.187164 0.040550
				CHANNELS 3 Xrotation Yrotation Zrotation
				JOINT R_foot0001_bind_JNT
				{
					OFFSET 0.132215 -18.028633 -1.138362
					CHANNELS 3 Xrotation Yrotation Zrotation
					JOINT R_foot0002_bind_JNT
					{
						OFFSET -0.007014 -4.693128 9.886505
						CHANNELS 3 Xrotation Yrotation Zrotation
						End Site
						{
							OFFSET 0.000000 0.000000 0.000000
						}
					}
				}
			}
		}
	}
}
MOTION
Frames: 5
Frame Time: 0.033333
0.000000 48.877892 0.000000 0.052227 -9.915502 -0.041691 3.947611 11.251349 -4.076550 -3.477623 -0.907301 1.269772 -1.180989 -1.634122 1.060241 2.341797 -0.284817 1.672235 0.022035 -8.168685 -0.540901 -6.872190 -0.134179 -4.775346 -1.766631 16.550392 -3.233583 10.471048 11.658447 -63.247795 10.543638 15.103701 -1.110059 -20.360235 -19.331797 -26.375374 -2.309649 -16.509312 4.743349 7.484396 -11.783269 62.821125 10.864819 -12.175770 1.582999 -9.522880 22.465843 36.749477 4.019471 11.159253 -3.222274 6.482666 -1.316574 -3.104984 -3.360693 -3.098239 1.872950 -4.294452 1.701336 2.967177 -2.884840 -0.753526 -0.468627 0.666879 1.653830 5.090577 0.394059 2.634001 -0.603089 -1.871449 -4.440620 0.084854 -3.364987 -0.039565 -0.326055 
0.069751 48.650620 -0.097340 0.010053 -7.057964 -0.038338 3.866181 7.617890 -4.256965 -3.930093 -0.890786 1.543535 -0.688864 -1.274499 0.746731 2.686285 -0.319939 1.989266 -0.497525 -8.362020 -0.815777 -5.877829 1.338080 -4.903440 -1.163323 16.501532 -3.529561 10.853237 11.440456 -61.751347 11.609468 12.785373 -2.445675 -21.950857 -18.927656 -24.087748 -3.127459 -16.094032 4.892292 9.065453 -12.058806 62.326263 12.007019 -11.980709 1.190810 -10.356860 23.539509 37.706245 4.105489 7.854804 -3.311941 5.361372 -0.202352 -3.997544 -2.390101 -3.322429 2.608682 -4.225890 2.710259 2.983390 -2.348102 -0.829169 0.110998 0.520826 1.254466 5.925811 0.463773 3.022787 -1.363632 -2.185416 -4.908298 -0.133698 -2.747910 -0.118608 -0.241953 
0.041754 48.653358 -0.164273 -0.001337 -6.061029 0.015106 3.875500 6.553659 -4.065300 -4.120283 -0.993797 1.458436 -0.543613 -1.400314 0.802877 2.868747 -0.113598 1.886091 -0.814893 -8.102226 -0.622773 -6.696669 0.942216 -4.097708 -1.346381 16.544231 -3.727807 11.460287 11.800003 -61.524994 11.434463 12.718286 -2.408029 -21.488688 -18.980141 -24.160461 -3.049176 -16.203384 5.354638 8.807044 -12.275978 61.392784 12.178567 -12.161708 1.025168 -9.903220 23.848503 37.450554 4.292074 6.953697 -3.244880 5.201688 -0.708887 -4.080649 -2.181901 -2.888489 2.489589 -4.392807 2.574799 3.156173 -2.308440 -0.792215 -0.165539 -0.598539 1.036186 6.074552 1.377260 3.574935 -1.423751 -2.445474 -4.718030 -0.385012 -2.656383 0.184673 -0.361623 
0.002306 48.691196 -0.195335 0.020272 -5.575122 -0.046989 3.880869 5.825850 -3.830330 -4.019652 -0.939467 1.410533 -0.860272 -1.471779 0.875201 3.294180 -0.144485 1.642303 -0.641421 -7.863358 -0.734775 -7.397937 0.808809 -3.891074 -1.175262 16.161163 -3.776978 11.425728 12.003857 -61.631302 11.499297 13.087850 -2.638790 -21.494370 -18.763779 -24.377077 -2.932616 -15.975506 5.212907 8.865685 -12.619833 61.291512 11.874164 -12.614290 0.946333 -9.634271 23.947594 37.792946 4.269094 6.362263 -3.093631 5.192024 -0.606356 -3.901220 -2.122309 -2.982127 2.207205 -4.616791 3.018981 3.142536 -2.200478 -0.703698 0.148037 -0.454482 0.998181 6.208822 0.855643 3.541847 -1.543189 -2.176760 -4.109409 -0.441425 -2.420960 0.135308 -0.354388 
0.020303 48.677505 -0.253428 0.022308 -5.239075 0.001666 3.819016 5.482030 -3.826687 -4.241603 -1.106216 1.428834 -0.791926 -1.471312 0.755868 3.660082 -0.206899 1.622373 -0.773091 -7.477378 -0.582488 -7.558829 0.723036 -3.856565 -1.298100 16.195633 -3.532461 11.769021 11.709942 -61.623875 11.158048 13.275076 -2.750008 -21.361975 -18.559370 -24.460169 -2.995911 -15.727649 5.157973 9.050162 -13.291301 61.139935 11.773931 -13.084056 1.047879 -9.485222 24.120188 37.438820 4.302616 5.927371 -3.066615 4.952052 -0.445778 -3.950325 -1.839171 -3.092948 1.956424 -4.475725 3.553002 3.425695 -2.313698 -0.890440 0.024086 -0.911542 1.051360 5.974872 1.134257 3.802328 -1.363266 -2.036835 -3.867312 -0.537349 -2.282700 -0.100824 -0.340393 
